<?xml version="1.0" encoding="UTF-8"?>
<svg width="24px" height="24px" viewBox="0 0 24 24" version="1.1" xmlns="http://www.w3.org/2000/svg">
    <g stroke="none" stroke-width="1" fill="none" fill-rule="evenodd">
        <path d="M15.5,3 C17.9852814,3 20,5.01471863 20,7.5 C20,9.98528137 17.9852814,12 15.5,12 C13.0147186,12 11,9.98528137 11,7.5 C11,5.01471863 13.0147186,3 15.5,3 Z" stroke="#FFFFFF" stroke-width="1.5"></path>
        <path d="M7,12 C9.209139,12 11,13.790861 11,16 C11,18.209139 9.209139,20 7,20 C4.790861,20 3,18.209139 3,16 C3,13.790861 4.790861,12 7,12 Z" stroke="#FFFFFF" stroke-width="1.5"></path>
        <path d="M17,16 C18.6568542,16 20,17.3431458 20,19 C20,20.6568542 18.6568542,22 17,22 C15.3431458,22 14,20.6568542 14,19 C14,17.3431458 15.3431458,16 17,16 Z" stroke="#FFFFFF" stroke-width="1.5"></path>
        <path d="M11,7.5 L11,16" stroke="#FFFFFF" stroke-width="1.5"></path>
        <path d="M14,19 L11,16" stroke="#FFFFFF" stroke-width="1.5"></path>
    </g>
</svg>
