<?xml version="1.0" encoding="UTF-8"?>
<svg width="24px" height="24px" viewBox="0 0 24 24" version="1.1" xmlns="http://www.w3.org/2000/svg">
    <g stroke="none" stroke-width="1" fill="none" fill-rule="evenodd">
        <path d="M4,3 L20,3 C20.5522847,3 21,3.44771525 21,4 L21,15 C21,15.5522847 20.5522847,16 20,16 L4,16 C3.44771525,16 3,15.5522847 3,15 L3,4 C3,3.44771525 3.44771525,3 4,3 Z" stroke="#FFFFFF" stroke-width="1.5"></path>
        <path d="M8,20 L16,20 C16.5522847,20 17,20.4477153 17,21 C17,21.5522847 16.5522847,22 16,22 L8,22 C7.44771525,22 7,21.5522847 7,21 C7,20.4477153 7.44771525,20 8,20 Z" fill="#FFFFFF"></path>
        <path d="M12,16 L12,20" stroke="#FFFFFF" stroke-width="1.5"></path>
        <path d="M7,8 L9,8 L9,10 L7,10 L7,8 Z M11,8 L17,8 L17,10 L11,10 L11,8 Z" fill="#FFFFFF"></path>
        <path d="M7,12 L9,12 L9,14 L7,14 L7,12 Z M11,12 L17,12 L17,14 L11,14 L11,12 Z" fill="#FFFFFF"></path>
    </g>
</svg>
